<svg id="visual" viewBox="0 0 1600 900" width="1600" height="900" xmlns="http://www.w3.org/2000/svg" xmlns:xlink="http://www.w3.org/1999/xlink" version="1.1"><path d="M1053 0L1013 21.5C973 43 893 86 865.5 128.8C838 171.7 863 214.3 885.8 257.2C908.7 300 929.3 343 917.3 385.8C905.3 428.7 860.7 471.3 820.3 514.2C780 557 744 600 780.3 642.8C816.7 685.7 925.3 728.3 963 771.2C1000.7 814 967.3 857 950.7 878.5L934 900L0 900L0 878.5C0 857 0 814 0 771.2C0 728.3 0 685.7 0 642.8C0 600 0 557 0 514.2C0 471.3 0 428.7 0 385.8C0 343 0 300 0 257.2C0 214.3 0 171.7 0 128.8C0 86 0 43 0 21.5L0 0Z" fill="#50A4EC" stroke-linecap="round" stroke-linejoin="miter"></path></svg>