<svg id="visual" viewBox="0 0 1280 1024" width="1280" height="1024" xmlns="http://www.w3.org/2000/svg" xmlns:xlink="http://www.w3.org/1999/xlink" version="1.1"><path d="M580 0L550 42.7C520 85.3 460 170.7 515.2 256C570.3 341.3 740.7 426.7 785 512C829.3 597.3 747.7 682.7 746.7 768C745.7 853.3 825.3 938.7 865.2 981.3L905 1024L0 1024L0 981.3C0 938.7 0 853.3 0 768C0 682.7 0 597.3 0 512C0 426.7 0 341.3 0 256C0 170.7 0 85.3 0 42.7L0 0Z" fill="#50A4EC" stroke-linecap="round" stroke-linejoin="miter"></path></svg>