<?xml version="1.0" encoding="UTF-8" standalone="no"?>
<!-- Created with Inkscape (http://www.inkscape.org/) -->

<svg
   version="1.1"
   id="svg1"
   width="342"
   height="167"
   viewBox="0 0 342 167"
   sodipodi:docname="Imagem logo lado - vetorizada.svg"
   inkscape:version="1.3 (0e150ed6c4, 2023-07-21)"
   xmlns:inkscape="http://www.inkscape.org/namespaces/inkscape"
   xmlns:sodipodi="http://sodipodi.sourceforge.net/DTD/sodipodi-0.dtd"
   xmlns="http://www.w3.org/2000/svg"
   xmlns:svg="http://www.w3.org/2000/svg">
  <defs
     id="defs1" />
  <sodipodi:namedview
     id="namedview1"
     pagecolor="#505050"
     bordercolor="#eeeeee"
     borderopacity="1"
     inkscape:showpageshadow="0"
     inkscape:pageopacity="0"
     inkscape:pagecheckerboard="0"
     inkscape:deskcolor="#505050"
     inkscape:zoom="2.0200097"
     inkscape:cx="134.90034"
     inkscape:cy="85.39563"
     inkscape:window-width="1920"
     inkscape:window-height="991"
     inkscape:window-x="-9"
     inkscape:window-y="-9"
     inkscape:window-maximized="1"
     inkscape:current-layer="g2"
     showguides="true">
    <sodipodi:guide
       position="314.35493,273.93018"
       orientation="0,-1"
       id="guide6"
       inkscape:locked="false" />
  </sodipodi:namedview>
  <g
     inkscape:groupmode="layer"
     inkscape:label="Image"
     id="g1">
    <g
       id="g2"
       transform="translate(-84.158011,-166.33583)">
      <path
         id="path3"
         style="fill:#50a3eb"
         d="m 238.97317,199.92929 c -5.52844,-0.0445 -11.25035,0.92841 -15.08594,2.78516 -6.30087,3.05024 -12.25358,9.28368 -14.22851,14.90234 -0.54873,1.56106 -1.12062,3.02817 -1.63281,4.28516 0.01,0.0356 0.01,0.0821 0.0117,0.11523 0.001,0.0549 0.004,0.11109 0.002,0.16602 -0.002,0.0452 -0.008,0.0883 -0.0156,0.13281 -0.007,0.0466 -0.029,0.089 -0.0449,0.13281 -0.014,0.0466 -0.0285,0.0942 -0.043,0.14063 -0.006,0.0196 -0.0109,0.039 -0.0156,0.0586 -0.0245,0.49628 -0.0407,0.99329 -0.10156,1.48633 -0.0908,0.54405 -0.17964,1.08683 -0.28711,1.62695 -1.9e-4,0.0613 1.3e-4,0.12203 0,0.1836 -10e-5,0.0538 2e-5,0.10828 0,0.16211 -2e-5,0.05 0,0.10041 0,0.15039 -10e-6,0.0524 0,0.10384 0,0.15625 v 0.15625 0.16211 0.18554 c 0.002,0.0701 -0.002,0.14102 -0.006,0.21094 -0.003,0.078 -0.005,0.15486 -0.0137,0.23242 -0.01,0.0712 -0.0155,0.14312 -0.0195,0.21485 -0.003,0.0661 -0.005,0.13307 -0.006,0.19921 -8.2e-4,0.085 1.1e-4,0.16886 0,0.25391 -1.2e-4,0.11198 -0.002,0.22396 -0.002,0.33594 -1e-5,0.0899 0,0.1796 0,0.26953 -1e-5,0.0731 0,0.14758 0,0.2207 v 0.22071 0.19726 0.18555 c 0,0.0516 -3.5e-4,0.10279 0.004,0.15429 0.001,0.0123 6.3e-4,0.0247 0.002,0.0371 0.63688,2.38781 1.71115,5.19549 3.23242,8.16016 2.64284,5.15062 8.36178,11.29192 13.46485,14.45898 6.38285,3.96113 22.76597,9.46995 32.97461,11.08594 3.17021,0.50189 5.46301,1.69544 7.85937,4.0918 3.03822,3.03833 3.31325,3.76406 2.68555,7.12305 -0.85927,4.59796 -2.09711,6.16542 -6.23828,7.89648 -5.37957,2.24874 -8.23875,1.76476 -9.40821,-1.58984 -2.11056,-6.05437 -9.57641,-7.88617 -15.55468,-3.81641 -2.76622,1.88325 -3.3065,2.87264 -3.3125,6.06641 -0.009,4.75207 1.26792,7.2109 4.76757,9.17968 1.8721,1.05306 3.97848,1.33495 6.72657,0.89844 2.19993,-0.34945 5.8001,-0.48913 8,-0.31055 9.11838,0.7402 18.30337,0.32967 23,-1.02734 6.85216,-1.97974 14.47439,-9.59801 16.83007,-16.81836 1.59361,-4.88426 1.60284,-5.70972 0.11914,-11.5 -2.07368,-8.09283 -5.43467,-13.77165 -10.70703,-18.0918 -5.29572,-4.33957 -10.32851,-6.33028 -29.24218,-11.56835 -17.11303,-4.73952 -19.5,-6.35795 -19.5,-13.21094 0,-3.12903 0.66048,-4.68199 2.98046,-7.00196 2.5296,-2.52956 3.62817,-2.93352 7.24805,-2.67187 3.81542,0.2758 4.44867,0.69527 5.99024,3.98047 3.26837,6.96519 9.59037,8.79732 15.78906,4.57617 4.75009,-3.23474 5.54938,-4.92389 4.4375,-9.38672 -1.31993,-5.29732 -6.44924,-8.73377 -11.94531,-8.00195 -2.28805,0.30467 -6.32119,-0.13873 -9.42188,-1.03516 -2.72817,-0.78865 -5.97587,-1.18031 -9.29297,-1.20703 z m 12.51563,42.95703 c 1.53692,-0.0781 3.04449,0.41364 4.12695,1.4961 2.14978,2.14977 2.00243,7.72806 -0.25781,9.77343 -2.65615,2.40382 -5.7285,2.03128 -8.09766,-0.98047 -0.18959,-0.24101 -0.33582,-0.46845 -0.49805,-0.70117 -0.16023,-0.11422 -0.31362,-0.23796 -0.44726,-0.38281 -0.22491,-0.27299 -0.3893,-0.58063 -0.53516,-0.90234 -0.12496,-0.29097 -0.26059,-0.58279 -0.30859,-0.89844 -0.0183,-0.16281 -0.0301,-0.32561 -0.0332,-0.48828 -0.44356,-1.78747 0.13651,-3.37847 1.75,-4.99219 1.19837,-1.19843 2.76396,-1.84568 4.30078,-1.92383 z" />
      <path
         id="path2"
         style="fill:#050538"
         d="m 249.46574,187.0325 c -6.25474,-0.004 -16.24419,2.71487 -22.78516,6.20117 -11.11917,5.92646 -17.89142,14.85663 -19.66015,25.92773 -0.79897,5.00106 -0.61086,7.84465 0.3125,4.73242 3.1915,-10.75713 8.02405,-16.96744 16.33398,-20.99023 6.13693,-2.97084 17.10384,-3.6794 24.37891,-1.57617 3.00367,0.86837 7.20344,1.34294 9.41992,1.0664 7.22793,-0.90178 13.25312,4.95064 12.24219,11.89063 -0.37278,2.55917 0.16682,3.08384 6.67187,6.5 8.02819,4.21606 18.27552,13.7 21.36719,19.77539 2.71228,5.32985 5.2119,15.13149 5.25,20.58594 0.0256,3.67322 0.20321,4.05519 1.13672,2.44726 1.71855,-2.96007 0.3665,-25.76846 -1.9668,-33.17578 -5.15405,-16.36224 -17.21609,-31.77569 -29.52929,-37.73437 -6.3657,-3.08052 -16.8868,-5.64639 -23.17188,-5.65039 z m -53.92969,45.5332 c -0.0413,-0.0444 -0.0781,-0.0299 -0.10938,0.0488 -0.20841,0.52484 -0.19905,3.85237 -0.0371,10.88672 0.20967,9.10728 0.90647,16.09687 1.99414,20 6.05606,21.73207 21.98399,38.44399 41.08204,43.10742 14.92199,3.64366 32.4081,-0.61266 43.83594,-10.67188 5.77054,-5.07943 9.23167,-10.81605 10.72461,-17.77734 1.37431,-6.40813 0.53318,-8.07207 -1.07032,-2.11719 -1.5595,5.79169 -9.88952,14.05297 -15.99023,15.85938 -6.66859,1.97452 -14.97934,2.48311 -20.65625,1.26562 -3.60752,-0.77365 -6.02718,-0.76937 -8.57812,0.0137 -7.48829,2.29823 -13.76563,-2.07266 -13.76563,-9.58398 v -4.49414 l -6.53711,-3.11914 c -3.74008,-1.78497 -9.31863,-5.72493 -13.04101,-9.20703 -9.46161,-8.85083 -14.61205,-18.43701 -17.33595,-32.27539 -0.22252,-1.13052 -0.3918,-1.80248 -0.51562,-1.93555 z m 56.41797,10.43164 c -1.63625,-0.16186 -3.43232,0.44795 -4.98828,2.00391 -2.55521,2.55519 -2.5319,5.05206 0.0742,8.36523 3.75802,4.77754 9.92773,2.32309 9.92773,-3.94922 0,-3.73854 -2.28464,-6.15017 -5.01172,-6.41992 z m 225.61328,39.76172 c 0.004,0.075 0.004,0.15406 0.0195,0.21289 0.0454,0.17394 0.0834,0.35003 0.12305,0.52539 0.0267,0.0205 0.0468,0.0518 0.0723,0.0742 0.007,-0.20198 0.0143,-0.32263 0.0215,-0.55664 -0.0836,-0.086 -0.15342,-0.16986 -0.23633,-0.25586 z m 23.23242,3.58984 c 0.0117,0.0183 0.0273,0.0303 0.0352,0.0547 0.0235,-10e-4 0.0468,-0.005 0.0703,-0.006 -0.0349,-0.0165 -0.0702,-0.0323 -0.10547,-0.0488 z m 4.87696,7.52539 c -0.14948,0.007 -0.27235,0.0116 -0.42383,0.0215 0.0904,0.2123 0.16413,0.43149 0.18555,0.67187 0.002,0.0182 -0.003,0.0365 -0.002,0.0547 0.0957,-0.24846 0.17479,-0.49719 0.24024,-0.74805 z M 307.72551,295.845 c -8e-4,0.004 -8.8e-4,0.009 -0.002,0.0137 0.009,0.009 0.0198,0.0168 0.0293,0.0254 -0.009,-0.0134 -0.0189,-0.0256 -0.0273,-0.0391 z" />
      <path
         style="fill:#000000"
         d="m 371.525,278.27584 0.74386,-1.13767"
         id="path24" />
      <path
         style="fill:#000000"
         d="m 374.58795,277.13817 -3.15046,0.30629"
         id="path25" />
      <path
         id="text28"
         style="font-size:45.4017px;display:none;fill:#050538;stroke-width:3.78347"
         transform="scale(1.0684504,0.93593489)"
         d="m 236.32886,294.50822 c -4.87713,0 -8.72646,1.56632 -11.54929,4.69951 -2.82282,3.13319 -4.23364,7.3162 -4.23364,12.54803 0,4.84758 1.3965,8.80827 4.18977,11.88234 2.79327,3.05929 6.47967,4.58891 11.06121,4.58891 4.78846,0 8.57338,-1.5745 11.35187,-4.72247 2.77849,-3.16274 4.16601,-7.35184 4.16601,-12.5689 0,-4.84757 -1.37321,-8.794 -4.12214,-11.83851 -2.74893,-3.05929 -6.37092,-4.58891 -10.86379,-4.58891 z m 129.02374,0 c -3.17752,0 -5.85237,0.77499 -8.02491,2.3268 -2.15776,1.55181 -3.23738,3.65863 -3.23738,6.31888 0,1.99519 0.59082,3.65737 1.77316,4.9875 1.19711,1.31534 3.31875,2.75729 6.36326,4.32388 2.52724,1.30057 4.1887,2.21629 4.98678,2.74834 0.79807,0.53205 1.44082,1.17448 1.92853,1.92822 0.5025,0.75374 0.75497,1.62666 0.75497,2.61687 0,3.44355 -2.37228,5.16487 -7.1164,5.16487 -1.43358,0 -3.00018,-0.2672 -4.69978,-0.79925 -1.68483,-0.53205 -3.02941,-1.23363 -4.03439,-2.1056 v 4.32388 c 0.79807,0.53206 2.05312,0.97461 3.7675,1.32931 1.72917,0.36948 3.16328,0.55509 4.30128,0.55509 3.60612,0 6.42959,-0.74646 8.46911,-2.23915 2.03953,-1.50748 3.05824,-3.67344 3.05824,-6.49627 0,-1.75872 -0.59082,-3.39237 -1.77315,-4.89984 -1.18234,-1.50748 -3.47224,-3.11051 -6.87145,-4.81012 -2.9115,-1.4188 -4.83259,-2.5711 -5.76367,-3.45785 -0.91631,-0.90153 -1.37466,-2.06201 -1.37466,-3.48081 0,-1.5666 0.64991,-2.79231 1.95047,-3.67906 1.31535,-0.88675 3.00727,-1.33139 5.07635,-1.33139 3.02974,0 5.48972,0.65878 7.38146,1.97413 v -4.14651 c -1.38924,-0.76852 -3.69345,-1.15192 -6.91532,-1.15192 z m -154.67786,0.0647 c 0.0257,1.10782 0.0506,2.21636 0.0695,3.3243 2.11327,0.22323 4.07555,0.82144 5.87702,1.8197 v -3.85643 c -1.63124,-0.72632 -3.62457,-1.14641 -5.94648,-1.28757 z m -4.63032,0.16486 c -3.57274,0.54142 -6.59431,2.10129 -9.0431,4.71412 -3.08885,3.29576 -4.63215,7.47059 -4.63215,12.52508 0,4.78845 1.39651,8.69818 4.18977,11.72791 2.79327,3.01495 6.48865,4.52213 11.08498,4.52213 3.57656,0 6.56829,-0.65061 8.9773,-1.95117 v -3.48081 c -2.40901,1.44836 -5.25395,2.17237 -8.53492,2.17237 -3.6209,0 -6.51777,-1.21962 -8.69031,-3.65819 -2.17254,-2.43856 -3.25932,-5.6161 -3.25932,-9.53258 0,-4.09383 1.15302,-7.4488 3.45858,-10.06472 1.72789,-1.96049 3.9007,-3.18576 6.51681,-3.67697 -0.0186,-1.09895 -0.0422,-2.19845 -0.0676,-3.29717 z m 51.76707,0.30259 v 32.63156 h 3.56825 v -13.96707 h 3.23739 c 1.31535,0 2.43791,0.31208 3.369,0.93281 0.93109,0.62072 1.98026,1.90558 3.14781,3.85644 l 5.47668,9.17782 h 4.30128 l -6.09637,-9.79761 c -1.10844,-1.80306 -1.96605,-3.03086 -2.57199,-3.68114 -0.59117,-0.66507 -1.34493,-1.19738 -2.26124,-1.59642 v -0.0876 c 4.81802,-1.3449 7.22608,-4.27158 7.22608,-8.77924 0,-2.68981 -0.88624,-4.81089 -2.65974,-6.3627 -1.75872,-1.55182 -4.13816,-2.3268 -7.13833,-2.3268 z m 27.68869,0 v 32.63156 h 3.56825 V 315.2804 h 4.36708 c 3.3401,0.11823 6.13494,-0.81384 8.38137,-2.79425 2.24644,-1.98041 3.369,-4.55831 3.369,-7.73583 0,-3.07407 -0.96145,-5.46235 -2.88275,-7.16196 -1.90651,-1.69961 -4.5742,-2.548 -8.00297,-2.548 z m 25.93746,0 v 32.63156 h 3.56825 v -32.63156 z m 11.83811,0 v 20.01675 c 0,8.77883 3.91557,13.1699 11.74854,13.1699 8.21723,0 12.32619,-4.56033 12.32619,-13.67909 v -19.50756 h -3.59019 v 20.12944 c 0,6.5324 -2.76438,9.7976 -8.29179,9.7976 -5.74911,0 -8.6245,-3.3835 -8.6245,-10.15236 v -19.77468 z m -87.21195,2.74834 c 3.66524,0 6.49586,1.21144 8.49105,3.63523 2.00997,2.42379 3.01437,5.77058 3.01437,10.04177 0,4.19728 -1.04201,7.50128 -3.12588,9.91029 -2.06908,2.39423 -4.95879,3.59141 -8.66836,3.59141 -3.47311,0 -6.25181,-1.27059 -8.33567,-3.81261 -2.08387,-2.54202 -3.12588,-5.78688 -3.12588,-9.73292 0,-3.96082 1.06531,-7.21994 3.19351,-9.77674 2.14299,-2.57157 4.99508,-3.85643 8.55686,-3.85643 z m 53.00463,0.57596 h 4.5901 c 5.17271,0 7.75802,2.1884 7.75802,6.56304 0,2.24643 -0.70899,3.97384 -2.12779,5.18574 -1.40402,1.21189 -3.44327,1.8197 -6.11831,1.8197 h -4.10202 z m -27.68869,0.0229 h 5.38711 c 2.15776,0 3.80674,0.49561 4.94474,1.48582 1.15277,0.9902 1.72928,2.37091 1.72928,4.14441 0,1.89174 -0.62127,3.42954 -1.86273,4.61187 -1.22667,1.16756 -2.84519,1.75084 -4.85516,1.75084 h -5.34324 z" />
      <ellipse
         style="fill:#050538;stroke-width:1.40148"
         id="path32"
         cx="251.48836"
         cy="248.97276"
         rx="7.4545131"
         ry="7.0222583" />
    </g>
  </g>
</svg>
