<?xml version="1.0" encoding="UTF-8" standalone="no"?>
<!-- Created with Inkscape (http://www.inkscape.org/) -->

<svg
   version="1.1"
   id="svg1"
   width="342"
   height="167"
   viewBox="0 0 342 167"
   sodipodi:docname="Imagem logo lado - vetorizada.svg"
   inkscape:version="1.3 (0e150ed6c4, 2023-07-21)"
   xmlns:inkscape="http://www.inkscape.org/namespaces/inkscape"
   xmlns:sodipodi="http://sodipodi.sourceforge.net/DTD/sodipodi-0.dtd"
   xmlns="http://www.w3.org/2000/svg"
   xmlns:svg="http://www.w3.org/2000/svg">
  <defs
     id="defs1" />
  <sodipodi:namedview
     id="namedview1"
     pagecolor="#505050"
     bordercolor="#eeeeee"
     borderopacity="1"
     inkscape:showpageshadow="0"
     inkscape:pageopacity="0"
     inkscape:pagecheckerboard="0"
     inkscape:deskcolor="#505050"
     inkscape:zoom="2.0200097"
     inkscape:cx="132.42511"
     inkscape:cy="77.474875"
     inkscape:window-width="1920"
     inkscape:window-height="991"
     inkscape:window-x="-9"
     inkscape:window-y="-9"
     inkscape:window-maximized="1"
     inkscape:current-layer="g2" />
  <g
     inkscape:groupmode="layer"
     inkscape:label="Image"
     id="g1">
    <g
       id="g2"
       transform="translate(-84.158011,-166.33583)">
      <path
         id="path3"
         style="fill:#50a3eb"
         d="m 142.93403,202.40453 c -5.52844,-0.0445 -11.25035,0.92841 -15.08594,2.78516 -6.30087,3.05024 -12.25358,9.28368 -14.22851,14.90234 -0.54873,1.56106 -1.12062,3.02817 -1.63281,4.28516 0.01,0.0356 0.01,0.0821 0.0117,0.11523 0.001,0.0549 0.004,0.11109 0.002,0.16602 -0.002,0.0452 -0.008,0.0883 -0.0156,0.13281 -0.007,0.0466 -0.029,0.089 -0.0449,0.13281 -0.014,0.0466 -0.0285,0.0942 -0.043,0.14063 -0.006,0.0196 -0.0109,0.039 -0.0156,0.0586 -0.0245,0.49628 -0.0407,0.99329 -0.10156,1.48633 -0.0908,0.54405 -0.17964,1.08683 -0.28711,1.62695 -1.9e-4,0.0613 1.3e-4,0.12203 0,0.1836 -1e-4,0.0538 2e-5,0.10828 0,0.16211 -2e-5,0.05 0,0.10041 0,0.15039 -1e-5,0.0524 0,0.10384 0,0.15625 v 0.15625 0.16211 0.18554 c 0.002,0.0701 -0.002,0.14102 -0.006,0.21094 -0.003,0.078 -0.005,0.15486 -0.0137,0.23242 -0.01,0.0712 -0.0155,0.14312 -0.0195,0.21485 -0.003,0.0661 -0.005,0.13307 -0.006,0.19921 -8.2e-4,0.085 1.1e-4,0.16886 0,0.25391 -1.2e-4,0.11198 -0.002,0.22396 -0.002,0.33594 -10e-6,0.0899 0,0.1796 0,0.26953 -10e-6,0.0731 0,0.14758 0,0.2207 v 0.22071 0.19726 0.18555 c 0,0.0516 -3.5e-4,0.10279 0.004,0.15429 0.001,0.0123 6.3e-4,0.0247 0.002,0.0371 0.63688,2.38781 1.71115,5.19549 3.23242,8.16016 2.64284,5.15062 8.36178,11.29192 13.46485,14.45898 6.38285,3.96113 22.76597,9.46995 32.97461,11.08594 3.17021,0.50189 5.46301,1.69544 7.85937,4.0918 3.03822,3.03833 3.31325,3.76406 2.68555,7.12305 -0.85927,4.59796 -2.09711,6.16542 -6.23828,7.89648 -5.37957,2.24874 -8.23875,1.76476 -9.40821,-1.58984 -2.11056,-6.05437 -9.57641,-7.88617 -15.55468,-3.81641 -2.76622,1.88325 -3.3065,2.87264 -3.3125,6.06641 -0.009,4.75207 1.26792,7.2109 4.76757,9.17968 1.8721,1.05306 3.97848,1.33495 6.72657,0.89844 2.19993,-0.34945 5.8001,-0.48913 8,-0.31055 9.11838,0.7402 18.30337,0.32967 23,-1.02734 6.85216,-1.97974 14.47439,-9.59801 16.83007,-16.81836 1.59361,-4.88426 1.60284,-5.70972 0.11914,-11.5 -2.07368,-8.09283 -5.43467,-13.77165 -10.70703,-18.0918 -5.29572,-4.33957 -10.32851,-6.33028 -29.24218,-11.56835 -17.11303,-4.73952 -19.5,-6.35795 -19.5,-13.21094 0,-3.12903 0.66048,-4.68199 2.98046,-7.00196 2.5296,-2.52956 3.62817,-2.93352 7.24805,-2.67187 3.81542,0.2758 4.44867,0.69527 5.99024,3.98047 3.26837,6.96519 9.59037,8.79732 15.78906,4.57617 4.75009,-3.23474 5.54938,-4.92389 4.4375,-9.38672 -1.31993,-5.29732 -6.44924,-8.73377 -11.94531,-8.00195 -2.28805,0.30467 -6.32119,-0.13873 -9.42188,-1.03516 -2.72817,-0.78865 -5.97587,-1.18031 -9.29297,-1.20703 z m 12.51563,42.95703 c 1.53692,-0.0781 3.04449,0.41364 4.12695,1.4961 2.14978,2.14977 2.00243,7.72806 -0.25781,9.77343 -2.65615,2.40382 -5.7285,2.03128 -8.09766,-0.98047 -0.18959,-0.24101 -0.33582,-0.46845 -0.49805,-0.70117 -0.16023,-0.11422 -0.31362,-0.23796 -0.44726,-0.38281 -0.22491,-0.27299 -0.3893,-0.58063 -0.53516,-0.90234 -0.12496,-0.29097 -0.26059,-0.58279 -0.30859,-0.89844 -0.0183,-0.16281 -0.0301,-0.32561 -0.0332,-0.48828 -0.44356,-1.78747 0.13651,-3.37847 1.75,-4.99219 1.19837,-1.19843 2.76396,-1.84568 4.30078,-1.92383 z" />
      <path
         id="path2"
         style="fill:#050538"
         d="m 153.4266,189.50774 c -6.25474,-0.004 -16.24419,2.71487 -22.78516,6.20117 -11.11917,5.92646 -17.89142,14.85663 -19.66015,25.92773 -0.79897,5.00106 -0.61086,7.84465 0.3125,4.73242 3.1915,-10.75713 8.02405,-16.96744 16.33398,-20.99023 6.13693,-2.97084 17.10384,-3.6794 24.37891,-1.57617 3.00367,0.86837 7.20344,1.34294 9.41992,1.0664 7.22793,-0.90178 13.25312,4.95064 12.24219,11.89063 -0.37278,2.55917 0.16682,3.08384 6.67187,6.5 8.02819,4.21606 18.27552,13.7 21.36719,19.77539 2.71228,5.32985 5.2119,15.13149 5.25,20.58594 0.0256,3.67322 0.20321,4.05519 1.13672,2.44726 1.71855,-2.96007 0.3665,-25.76846 -1.9668,-33.17578 -5.15405,-16.36224 -17.21609,-31.77569 -29.52929,-37.73437 -6.3657,-3.08052 -16.8868,-5.64639 -23.17188,-5.65039 z m -53.929694,45.5332 c -0.04128,-0.0444 -0.07811,-0.0299 -0.109375,0.0488 -0.208411,0.52484 -0.199052,3.85237 -0.03711,10.88672 0.209668,9.10728 0.906469,16.09687 1.994139,20 6.05606,21.73207 21.98399,38.44399 41.08204,43.10742 14.92199,3.64366 32.4081,-0.61266 43.83594,-10.67188 5.77054,-5.07943 9.23167,-10.81605 10.72461,-17.77734 1.37431,-6.40813 0.53318,-8.07207 -1.07032,-2.11719 -1.5595,5.79169 -9.88952,14.05297 -15.99023,15.85938 -6.66859,1.97452 -14.97934,2.48311 -20.65625,1.26562 -3.60752,-0.77365 -6.02718,-0.76937 -8.57812,0.0137 -7.48829,2.29823 -13.76563,-2.07266 -13.76563,-9.58398 v -4.49414 l -6.53711,-3.11914 c -3.74008,-1.78497 -9.31863,-5.72493 -13.04101,-9.20703 -9.46161,-8.85083 -14.61205,-18.43701 -17.33595,-32.27539 -0.222526,-1.13052 -0.391799,-1.80248 -0.515624,-1.93555 z m 56.417974,10.43164 c -1.63625,-0.16186 -3.43232,0.44795 -4.98828,2.00391 -2.55521,2.55519 -2.5319,5.05206 0.0742,8.36523 3.75802,4.77754 9.92773,2.32309 9.92773,-3.94922 0,-3.73854 -2.28464,-6.15017 -5.01172,-6.41992 z m 225.61328,39.76172 c 0.004,0.075 0.004,0.15406 0.0195,0.21289 0.0454,0.17394 0.0834,0.35003 0.12305,0.52539 0.0267,0.0205 0.0468,0.0518 0.0723,0.0742 0.007,-0.20198 0.0143,-0.32263 0.0215,-0.55664 -0.0836,-0.086 -0.15342,-0.16986 -0.23633,-0.25586 z m 23.23242,3.58984 c 0.0117,0.0183 0.0273,0.0303 0.0352,0.0547 0.0235,-0.001 0.0468,-0.005 0.0703,-0.006 -0.0349,-0.0165 -0.0702,-0.0323 -0.10547,-0.0488 z m 4.87696,7.52539 c -0.14948,0.007 -0.27235,0.0116 -0.42383,0.0215 0.0904,0.2123 0.16413,0.43149 0.18555,0.67187 0.002,0.0182 -0.003,0.0365 -0.002,0.0547 0.0957,-0.24846 0.17479,-0.49719 0.24024,-0.74805 z m -197.95117,1.97071 c -8e-4,0.004 -8.8e-4,0.009 -0.002,0.0137 0.009,0.009 0.0198,0.0168 0.0293,0.0254 -0.009,-0.0134 -0.0189,-0.0256 -0.0273,-0.0391 z" />
      <path
         style="fill:#000000"
         d="m 275.48586,280.75108 0.74386,-1.13767"
         id="path24" />
      <path
         style="fill:#000000"
         d="m 278.54881,279.61341 -3.15046,0.30629"
         id="path25" />
      <rect
         style="fill:#050538;stroke-width:0.928589"
         id="rect26"
         width="167.3708"
         height="0.52508545"
         x="221.82977"
         y="263.31671" />
      <text
         xml:space="preserve"
         style="font-size:45.4017px;fill:#050538;stroke-width:3.78347"
         x="190.19632"
         y="327.67212"
         id="text28"
         transform="scale(1.0684504,0.93593489)"><tspan
           sodipodi:role="line"
           id="tspan28"
           x="190.19632"
           y="327.67212"
           style="font-style:normal;font-variant:normal;font-weight:normal;font-stretch:normal;font-family:'Malgun Gothic';-inkscape-font-specification:'Malgun Gothic';stroke-width:3.78347">CORPIUS</tspan></text>
      <ellipse
         style="fill:#050538;stroke-width:1.40148"
         id="path32"
         cx="155.44922"
         cy="251.448"
         rx="7.4545131"
         ry="7.0222583" />
    </g>
  </g>
</svg>
